<svg width="179" height="167" viewBox="0 0 179 167" fill="none" xmlns="http://www.w3.org/2000/svg">
<g clip-path="url(#clip0_37_1364)">
<path d="M26.2135 154.019C61.1674 170.706 117.836 170.711 152.79 154.019C187.744 137.327 187.739 110.275 152.79 93.5881C117.841 76.9013 61.1674 76.9013 26.2135 93.5881C-8.74038 110.275 -8.7353 137.333 26.2135 154.019Z" fill="#1F67FF"/>
<path d="M152.669 141.689C159.106 141.689 164.325 139.198 164.325 136.125C164.325 133.052 159.106 130.561 152.669 130.561C146.231 130.561 141.012 133.052 141.012 136.125C141.012 139.198 146.231 141.689 152.669 141.689Z" fill="#0052FE"/>
<path d="M23.5601 136.921L27.684 134.538C29.9864 132.656 31.7389 130.185 32.7564 127.388C34.0295 123.872 33.852 121.199 32.939 119.858C31.818 118.207 28.9115 118.496 28.7948 121.972C28.5513 128.821 26.5579 133.572 23.5601 136.921Z" fill="#27DEBF"/>
<path d="M23.5601 136.921L27.684 134.538C29.9864 132.656 31.7389 130.185 32.7564 127.388C34.0295 123.872 33.852 121.199 32.939 119.858C31.818 118.207 28.9115 118.496 28.7948 121.972C28.5513 128.821 26.5579 133.572 23.5601 136.921Z" fill="url(#paint0_linear_37_1364)"/>
<path d="M23.5621 137.174C23.5084 137.173 23.4563 137.156 23.4133 137.123C23.3703 137.091 23.3386 137.046 23.3228 136.995C23.307 136.943 23.3079 136.888 23.3254 136.837C23.3429 136.786 23.376 136.742 23.4201 136.711C32.9562 130.106 31.1098 120.894 31.0895 120.802C31.0825 120.769 31.0822 120.734 31.0885 120.701C31.0947 120.667 31.1076 120.635 31.1262 120.607C31.1448 120.578 31.1688 120.554 31.1969 120.534C31.225 120.515 31.2566 120.502 31.2899 120.495C31.3232 120.488 31.3576 120.487 31.391 120.494C31.4245 120.5 31.4563 120.513 31.4848 120.531C31.5133 120.55 31.5379 120.574 31.5571 120.602C31.5763 120.63 31.5898 120.662 31.5968 120.695C31.5968 120.792 33.5446 130.319 23.7244 137.128C23.6768 137.161 23.6197 137.177 23.5621 137.174Z" fill="white"/>
<path d="M15.2965 141.701C15.2965 141.701 13.861 140.532 14.2059 138.947C14.5508 137.362 15.4791 136.224 13.8914 134.181C12.3038 132.138 11.8625 129.415 13.7595 127.941C15.2052 126.798 17.4624 128.414 18.274 125.4C18.8725 123.195 18.6696 118.312 21.4747 116.686C24.2797 115.06 26.0398 117.509 25.5985 120.822C25.213 123.785 24.6652 126.635 25.0913 127.428C25.913 128.952 27.3181 128.744 27.2521 131.528C27.1963 134.12 24.7463 136.264 24.7463 136.264L15.2965 141.701Z" fill="url(#paint1_linear_37_1364)"/>
<path d="M20.0116 139.214C19.9496 139.213 19.8899 139.191 19.8434 139.149C19.7968 139.108 19.7665 139.052 19.758 138.991C19.0327 132.969 20.7725 122.573 22.1928 119.484C22.2047 119.449 22.2239 119.418 22.2489 119.392C22.274 119.366 22.3044 119.345 22.338 119.332C22.3716 119.318 22.4078 119.312 22.444 119.314C22.4802 119.315 22.5156 119.325 22.5478 119.341C22.5781 119.355 22.6054 119.375 22.628 119.399C22.6505 119.423 22.668 119.452 22.6794 119.483C22.6907 119.515 22.6957 119.548 22.694 119.581C22.6923 119.614 22.684 119.647 22.6696 119.677C21.2645 122.725 19.5856 133.152 20.2805 138.909C20.2876 138.976 20.2682 139.043 20.2264 139.095C20.1845 139.147 20.1238 139.181 20.0573 139.189L20.0116 139.214Z" fill="white"/>
<path d="M19.8718 134.527C19.833 134.529 19.7944 134.52 19.7602 134.502C18.0001 133.643 16.8841 130.579 16.8385 130.437C16.826 130.405 16.8201 130.371 16.8209 130.337C16.8217 130.303 16.8293 130.27 16.8433 130.239C16.8572 130.208 16.8773 130.18 16.9021 130.157C16.927 130.134 16.9563 130.116 16.9882 130.104C17.0201 130.093 17.0539 130.088 17.0878 130.09C17.1217 130.091 17.1548 130.1 17.1853 130.115C17.2158 130.13 17.243 130.151 17.2654 130.176C17.2877 130.202 17.3047 130.231 17.3153 130.264C17.3153 130.294 18.4058 133.262 19.9834 134.029C20.0351 134.054 20.0768 134.096 20.1016 134.148C20.1264 134.2 20.1329 134.259 20.1199 134.315C20.1069 134.371 20.0753 134.421 20.0302 134.457C19.9851 134.493 19.9293 134.512 19.8718 134.512V134.527Z" fill="white"/>
<path d="M19.8438 136.559C19.7929 136.559 19.7433 136.544 19.7016 136.515C19.6599 136.486 19.6281 136.444 19.6104 136.397C19.5852 136.335 19.5854 136.265 19.6111 136.203C19.6367 136.141 19.6857 136.092 19.7474 136.066C22.7097 134.877 24.556 131.346 24.5763 131.305C24.6073 131.245 24.6607 131.2 24.7249 131.18C24.7891 131.159 24.8588 131.165 24.9187 131.196C24.9786 131.227 25.0237 131.28 25.0441 131.345C25.0646 131.409 25.0587 131.479 25.0278 131.539C24.9466 131.691 23.0749 135.279 19.9554 136.539C19.9206 136.555 19.8821 136.562 19.8438 136.559Z" fill="white"/>
<path d="M123.385 109.224C123.385 109.224 121.168 105.626 120.95 101.719C120.732 97.8112 121.589 96.1852 122.766 95.7177C123.942 95.2503 124.034 96.6883 124.637 97.5368C125.241 98.3854 126.474 97.9027 126.93 95.2553C127.387 92.608 129.05 88.1416 132.51 87.2727C136.314 86.3276 134.275 90.7991 133.316 92.542C132.358 94.2848 131.617 96.6629 132.246 97.3082C132.875 97.9535 133.854 96.7594 134.782 97.8671C135.913 99.2035 132.398 104.015 130.379 105.179L123.385 109.224Z" fill="url(#paint2_linear_37_1364)"/>
<path d="M126.425 107.713C126.392 107.712 126.359 107.704 126.329 107.69C126.299 107.676 126.271 107.656 126.249 107.632C126.226 107.607 126.209 107.579 126.197 107.547C126.186 107.516 126.18 107.483 126.182 107.449C126.525 101.164 128.482 95.073 131.863 89.7665C131.882 89.7389 131.907 89.7154 131.935 89.6975C131.963 89.6796 131.995 89.6677 132.028 89.6625C132.062 89.6573 132.096 89.6588 132.128 89.6671C132.161 89.6754 132.191 89.6902 132.218 89.7106C132.271 89.7502 132.307 89.809 132.317 89.8745C132.328 89.94 132.312 90.007 132.274 90.0612C128.953 95.29 127.032 101.287 126.694 107.475C126.692 107.508 126.684 107.541 126.669 107.571C126.654 107.601 126.634 107.628 126.609 107.65C126.584 107.672 126.555 107.689 126.524 107.7C126.492 107.711 126.459 107.716 126.425 107.713Z" fill="white"/>
<path d="M126.713 104.71C126.671 104.71 126.629 104.699 126.592 104.68C125.171 103.892 124.385 101.555 124.355 101.458C124.344 101.427 124.339 101.393 124.341 101.359C124.342 101.326 124.351 101.293 124.366 101.263C124.38 101.233 124.401 101.205 124.426 101.183C124.451 101.161 124.48 101.144 124.512 101.133C124.576 101.112 124.645 101.118 124.705 101.148C124.765 101.179 124.811 101.232 124.832 101.296C124.832 101.296 125.592 103.547 126.86 104.233C126.918 104.267 126.96 104.322 126.978 104.386C126.996 104.45 126.988 104.519 126.957 104.578C126.934 104.622 126.899 104.658 126.855 104.681C126.812 104.705 126.762 104.715 126.713 104.71Z" fill="white"/>
<path d="M126.963 103.17C126.907 103.169 126.853 103.15 126.809 103.115C126.765 103.08 126.733 103.031 126.72 102.977C126.712 102.945 126.71 102.911 126.714 102.879C126.719 102.846 126.73 102.814 126.747 102.786C126.764 102.757 126.787 102.733 126.813 102.713C126.84 102.694 126.87 102.68 126.902 102.672C130.565 101.742 131.833 99.8213 131.843 99.801C131.861 99.7726 131.884 99.7481 131.912 99.7288C131.939 99.7095 131.97 99.6958 132.003 99.6884C132.036 99.6811 132.07 99.6803 132.103 99.6861C132.136 99.6919 132.167 99.7042 132.196 99.7222C132.224 99.7402 132.248 99.7636 132.268 99.7911C132.287 99.8186 132.301 99.8497 132.308 99.8825C132.315 99.9153 132.316 99.9492 132.31 99.9823C132.304 100.015 132.292 100.047 132.274 100.075C132.218 100.162 130.9 102.179 127.029 103.165L126.963 103.17Z" fill="white"/>
<path d="M68.1969 101.326C68.1969 101.326 63.3325 100.137 63.0789 91.0109C62.8101 81.1635 64.2709 69.6697 58.5137 68.7398C52.7566 67.81 49.5609 74.8373 49.632 83.0436C49.6979 90.2284 52.5892 105.828 68.1766 108.887L68.1969 101.326Z" fill="#27DEBF"/>
<path d="M68.1969 101.326C68.1969 101.326 63.3325 100.137 63.0789 91.0109C62.8101 81.1635 64.2709 69.6697 58.5137 68.7398C52.7566 67.81 49.5609 74.8373 49.632 83.0436C49.6979 90.2284 52.5892 105.828 68.1766 108.887L68.1969 101.326Z" fill="url(#paint3_linear_37_1364)"/>
<path d="M68.1994 107.952H68.1537C64.6487 107.311 61.7929 105.375 59.6676 102.205C53.3677 92.7892 55.351 75.2081 56.0053 72.139C56.0199 72.0736 56.0593 72.0165 56.1151 71.9795C56.1709 71.9426 56.2388 71.9287 56.3046 71.9409C56.3702 71.9566 56.4274 71.9971 56.4642 72.0538C56.501 72.1105 56.5147 72.1792 56.5024 72.2457C55.8582 75.2945 53.885 92.652 60.0886 101.92C60.9916 103.357 62.1829 104.591 63.587 105.543C64.9911 106.494 66.5773 107.143 68.245 107.449C68.2781 107.455 68.3097 107.467 68.3378 107.486C68.366 107.504 68.3903 107.528 68.4091 107.556C68.428 107.584 68.4412 107.615 68.4478 107.648C68.4545 107.681 68.4545 107.715 68.4479 107.748C68.4371 107.806 68.4062 107.858 68.3608 107.896C68.3153 107.933 68.2581 107.953 68.1994 107.952Z" fill="white"/>
<path d="M68.1979 131.372C63.1712 132.053 55.0097 132.043 50.2974 128.324C45.5852 124.604 46.5692 121.403 48.3801 120.067C50.1909 118.73 51.7634 117.206 48.6489 114.238C45.5345 111.271 40.5331 106.505 38.9099 99.3553C37.2867 92.206 38.0882 87.7345 41.2736 86.2457C44.3627 84.8026 45.1794 87.0994 47.0714 91.8351C48.9634 96.5708 53.2191 92.5109 56.8611 93.9895C60.5031 95.4682 60.356 98.395 60.5843 100.91C60.8125 103.425 62.0147 104.122 64.0791 104.122C66.1436 104.122 68.1979 105.311 68.1979 107.678V131.372Z" fill="url(#paint4_linear_37_1364)"/>
<path d="M68.1998 123.065C68.178 123.07 68.1555 123.07 68.1338 123.065C67.9157 123.004 62.7165 121.49 55.1434 114.523C47.0783 107.105 43.274 95.9768 43.2334 95.865C43.214 95.801 43.22 95.7319 43.2503 95.6722C43.2805 95.6125 43.3326 95.5669 43.3957 95.5449C43.459 95.5238 43.528 95.5285 43.5878 95.558C43.6476 95.5875 43.6934 95.6394 43.7153 95.7024C43.7508 95.8142 47.5196 106.82 55.4883 114.147C62.9549 121.022 68.215 122.562 68.2708 122.577C68.3027 122.586 68.3326 122.602 68.3585 122.623C68.3845 122.644 68.4061 122.67 68.4221 122.699C68.4381 122.728 68.4483 122.76 68.4519 122.793C68.4555 122.827 68.4526 122.86 68.4432 122.892C68.4268 122.943 68.3942 122.988 68.3503 123.019C68.3063 123.05 68.2535 123.066 68.1998 123.065Z" fill="white"/>
<path d="M57.2568 116.295C57.2058 116.296 57.1558 116.28 57.114 116.251C57.0721 116.222 57.0404 116.18 57.0235 116.132C55.3952 111.945 55.0249 102.987 54.9945 102.606C54.9931 102.539 55.0176 102.474 55.063 102.425C55.1084 102.375 55.1711 102.346 55.238 102.342C55.3042 102.343 55.3678 102.368 55.4164 102.413C55.4651 102.458 55.4955 102.519 55.5017 102.586C55.5017 102.677 55.8822 111.838 57.48 115.949C57.4922 115.981 57.4981 116.014 57.4973 116.048C57.4965 116.081 57.489 116.114 57.4753 116.145C57.4617 116.176 57.442 116.204 57.4176 116.227C57.3931 116.25 57.3643 116.268 57.3329 116.279C57.3084 116.288 57.2828 116.293 57.2568 116.295Z" fill="white"/>
<path d="M57.2163 122.314C56.7486 122.318 56.2811 122.294 55.8163 122.243C55.783 122.239 55.7508 122.229 55.7215 122.212C55.6923 122.196 55.6666 122.174 55.6458 122.147C55.6251 122.121 55.6098 122.091 55.6007 122.058C55.5917 122.026 55.5891 121.992 55.5931 121.959C55.5971 121.925 55.6076 121.893 55.624 121.864C55.6405 121.834 55.6625 121.809 55.6889 121.788C55.7153 121.767 55.7455 121.752 55.7778 121.743C55.8101 121.734 55.8438 121.731 55.8771 121.735C55.9228 121.735 60.6452 122.274 62.8111 120.063C62.8347 120.04 62.8627 120.021 62.8936 120.008C62.9245 119.995 62.9577 119.988 62.9912 119.988C63.0247 119.988 63.0578 119.995 63.0887 120.008C63.1196 120.021 63.1477 120.04 63.1712 120.063C63.1949 120.087 63.2136 120.114 63.2264 120.145C63.2393 120.175 63.2459 120.208 63.2459 120.241C63.2459 120.274 63.2393 120.307 63.2264 120.338C63.2136 120.368 63.1949 120.396 63.1712 120.419C61.6039 122.04 58.8699 122.314 57.2163 122.314Z" fill="white"/>
<path d="M53.5652 26.0952L53.0174 22.9296L50.1971 24.7894C49.9394 24.2813 49.5742 23.8356 49.1269 23.4835L50.4761 19.825L47.9399 19.261L46.0834 22.8178C45.4103 22.9321 44.7575 23.1444 44.1458 23.4479L43.3443 20.765L40.3313 23.138L40.5291 26.2883C39.9156 26.9768 39.3591 27.7144 38.8654 28.4936L36.3799 28.3666L34.635 32.2842L36.7705 33.1988C36.5476 34.0092 36.4065 34.8399 36.3495 35.6785L33.6358 38.1785L34.1785 41.3491L37.0038 39.4894C37.26 39.997 37.6256 40.4413 38.0741 40.7902L36.7502 44.4538L39.2864 45.0127L41.9443 42.4213C42.5581 42.3247 42.4059 41.1662 43.0755 40.8359L43.882 43.5087L46.8899 41.1408L46.8138 39.901C47.4225 39.2201 49.7254 37.7211 50.2225 36.9386L50.8464 35.9224L52.5913 32.0047L51.7797 30.5312L50.8768 28.6105L53.5652 26.0952ZM44.3588 36.5169C42.0458 38.336 41.3154 38.7374 40.9248 36.3035C40.5342 33.8696 41.8581 30.1704 44.1711 28.3462C46.4841 26.5221 47.3667 26.395 47.7827 28.8239C48.1986 31.2527 46.6769 34.7181 44.3588 36.5169Z" fill="#E0E0E0"/>
<path d="M47.9611 19.2688L51.248 21.1692L49.3915 24.7108L46.1046 22.8155L47.9611 19.2688Z" fill="#6D9CFF"/>
<path d="M56.3054 24.8323L53.4852 26.6921L50.1983 24.7968L53.0185 22.932L56.3054 24.8323Z" fill="#6D9CFF"/>
<path d="M55.8535 33.8969L53.718 32.9823L50.4311 31.0819L52.5666 31.9965L55.8535 33.8969Z" fill="#E0E0E0"/>
<path d="M36.7451 44.4562L40.0321 46.3566L41.3813 42.6981L38.0944 40.7977L36.7451 44.4562Z" fill="#E0E0E0"/>
<path d="M47.1454 45.4178L43.8534 43.5174L43.052 40.8447L46.3389 42.7451L47.1454 45.4178Z" fill="#E0E0E0"/>
<path d="M56.8527 27.9973L56.31 24.8317L53.4897 26.6914C53.2302 26.1831 52.8632 25.7374 52.4144 25.3855L53.7637 21.727L51.2528 21.163L49.3912 24.7199C48.7196 24.8334 48.0684 25.0457 47.4587 25.3499L46.6572 22.6772L43.6442 25.0501L43.842 28.2005C43.2278 28.8939 42.6714 29.6365 42.1783 30.421L39.6877 30.294L37.9428 34.2116L40.0783 35.1263C39.8574 35.9388 39.7164 36.771 39.6573 37.611L36.9487 40.0754L37.4914 43.2461L40.3117 41.3864C40.5713 41.8932 40.9383 42.3372 41.387 42.6872L40.0377 46.3457L42.5739 46.9097L44.4304 43.3528C45.1047 43.2406 45.758 43.0264 46.3681 42.7176L47.1695 45.3904L50.1825 43.0225L49.9847 39.8721C50.5983 39.1836 51.1547 38.4461 51.6485 37.6669L54.139 37.7888L55.8839 33.8712L53.718 32.9617C53.9426 32.1498 54.0853 31.3173 54.1441 30.4769L56.8527 27.9973ZM47.6565 38.4392C45.3485 40.2583 43.137 39.7654 42.716 37.3366C42.295 34.9078 43.8319 31.4576 46.1449 29.6385C48.4579 27.8194 50.6644 28.3174 51.0854 30.7462C51.5064 33.1751 49.9695 36.6201 47.6565 38.4392Z" fill="#1F67FF"/>
<path d="M46.6515 22.6701L43.3595 20.7697L40.3516 23.1426L43.6385 25.0379L46.6515 22.6701Z" fill="#6D9CFF"/>
<path d="M40.3516 23.1433L40.5494 26.2886L43.8363 28.189L43.6385 25.0386L40.3516 23.1433Z" fill="#E0E0E0"/>
<path d="M42.1743 30.3982L38.8874 28.4978L36.3968 28.3758L39.6888 30.2762L42.1743 30.3982Z" fill="#F5F5F5"/>
<path d="M36.3963 28.3758L34.6513 32.2935L37.9433 34.1939L39.6882 30.2762L36.3963 28.3758Z" fill="#6D9CFF"/>
<path d="M39.656 37.5869L36.364 35.6865L33.6553 38.1865L36.9422 40.0869L39.656 37.5869Z" fill="#F5F5F5"/>
<path d="M37.485 43.2514L34.1981 41.351L33.6553 38.1854L36.9422 40.0857L37.485 43.2514Z" fill="#6D9CFF"/>
<path d="M51.2466 21.1692L47.9597 19.2688L50.4705 19.8328L53.7625 21.7332L51.2466 21.1692Z" fill="#F5F5F5"/>
<path d="M38.8252 11.7267V6.99609L35.0665 8.69322C34.8675 7.89061 34.5236 7.1312 34.0521 6.45239L36.4209 1.67094L33.5296 -0.00587046L30.5775 4.4453C29.7548 4.3733 28.9259 4.45427 28.1326 4.68412L27.7166 0.573391L23.6283 2.94125L23.2174 7.51437C22.3277 8.30416 21.5095 9.17136 20.7725 10.1058L17.8204 9.08956L14.9291 14.1098L17.2929 16.1423C16.8561 17.2488 16.5166 18.3913 16.2784 19.5569L12.5197 22.2043V26.94L16.2784 25.2428C16.4775 26.0455 16.8213 26.8049 17.2929 27.4837L14.9393 32.2702L17.8305 33.9419L20.7827 29.4958C21.6054 29.5676 22.4342 29.4867 23.2276 29.257L23.6384 33.3678L27.7268 30.9999L28.1427 26.4268C29.4188 25.9604 30.5492 25.1646 31.4195 24.1199L33.5397 24.8668L36.431 19.8516L34.6557 18.3273C35.0411 17.0561 35.1839 15.7236 35.0767 14.3995L38.8252 11.7267ZM25.6725 23.5457C22.5377 25.3597 20.6001 24.0538 20.6001 20.4411C20.6001 16.8283 23.1921 12.3619 26.3319 10.5479C29.4717 8.73387 31.3688 10.0398 31.3688 13.683C31.3688 17.3263 28.8123 21.7266 25.6725 23.5457Z" fill="#E0E0E0"/>
<path d="M36.8175 1.90039L33.5255 0L30.5733 4.44609L33.8653 6.34648L36.8175 1.90039Z" fill="#6D9CFF"/>
<path d="M42.1137 8.90188L38.8268 7.0015L35.0681 8.69863L38.3551 10.599L42.1137 8.90188Z" fill="#6D9CFF"/>
<path d="M26.9146 35.2753L23.6277 33.3699L23.2118 29.2642L26.5038 31.1646L26.9146 35.2753Z" fill="#E0E0E0"/>
<path d="M14.9227 32.2759L18.2147 34.1763L20.5835 29.3898L17.2915 27.4894L14.9227 32.2759Z" fill="#E0E0E0"/>
<path d="M42.1185 13.6538V8.92315L38.3599 10.605C38.1629 9.8017 37.8189 9.04192 37.3454 8.36421L39.7142 3.58275L36.8229 1.90594L33.8708 6.35711C33.0481 6.28261 32.2187 6.36362 31.4259 6.59593L31.01 2.47504L26.9216 4.84291L26.5057 9.41603C25.6172 10.2071 24.7991 11.0742 24.0608 12.0075L21.1086 10.9912L18.2174 16.0115L20.5862 18.044C20.1471 19.1496 19.8076 20.2924 19.5717 21.4586L15.8131 24.1059V28.8416L19.5717 27.1445C19.7686 27.9479 20.1126 28.7077 20.5862 29.3853L18.2174 34.1668L21.1086 35.8385L24.0608 31.3924C24.8835 31.4644 25.7124 31.3835 26.5057 31.1536L26.9216 35.2643L31.01 32.8965L31.4208 28.3233C32.3106 27.5336 33.1287 26.6664 33.8657 25.7319L36.8179 26.7482L39.7091 21.733L37.3403 19.7005C37.7793 18.5948 38.1188 17.452 38.3548 16.2859L42.1185 13.6538ZM28.9658 25.4728C25.826 27.2868 23.2796 25.8132 23.2796 22.1852C23.2796 18.5572 25.8158 14.1416 28.9658 12.3225C32.1157 10.5034 34.6469 11.9821 34.6469 15.6101C34.6469 19.2381 32.1005 23.6283 28.9658 25.4474V25.4728Z" fill="#1F67FF"/>
<path d="M20.7651 10.119L24.057 12.0193L21.1049 10.9879L17.8129 9.08747L20.7651 10.119Z" fill="#F0F0F0"/>
<path d="M17.8187 9.08474L14.9266 14.1067L18.2175 16.0085L21.1096 10.9865L17.8187 9.08474Z" fill="#6D9CFF"/>
<path d="M14.9227 14.1047L18.2147 16.0051L20.5835 18.0478L17.2915 16.1474L14.9227 14.1047Z" fill="#E0E0E0"/>
<path d="M16.2784 19.5623L19.5653 21.4627L15.8066 24.1151L12.5197 22.2147L16.2784 19.5623Z" fill="#F5F5F5"/>
<path d="M12.5197 22.2138L15.8066 24.1142V28.8448L12.5197 26.9444V22.2138Z" fill="#6D9CFF"/>
<path d="M31.007 2.47178L27.715 0.571391L23.6266 2.93925L26.9135 4.83964L31.007 2.47178Z" fill="#6D9CFF"/>
<path d="M73.2075 138.168L120.888 110.587C120.993 110.55 121.084 110.481 121.148 110.39C121.213 110.299 121.247 110.19 121.247 110.079C121.247 109.967 121.213 109.858 121.148 109.767C121.084 109.676 120.993 109.607 120.888 109.57L116.48 107.03C116.207 106.892 115.906 106.821 115.6 106.821C115.294 106.821 114.993 106.892 114.72 107.03L67.0242 134.585C66.9192 134.622 66.8282 134.691 66.7638 134.782C66.6995 134.873 66.6649 134.982 66.6649 135.094C66.6649 135.205 66.6995 135.314 66.7638 135.405C66.8282 135.496 66.9192 135.565 67.0242 135.602L71.4474 138.142C71.7184 138.284 72.0188 138.36 72.3244 138.364C72.6301 138.369 72.9325 138.301 73.2075 138.168Z" fill="#0052FE"/>
<path d="M119.58 4.10231L76.5868 28.9699C75.9476 29.3878 75.4158 29.9505 75.0342 30.6126C74.6526 31.2747 74.4321 32.0175 74.3904 32.7809V134.95C74.3904 136.352 75.3745 136.921 76.5868 136.22L119.58 111.352C120.22 110.935 120.753 110.373 121.135 109.71C121.516 109.048 121.736 108.305 121.777 107.541V5.37262C121.777 3.9702 120.798 3.4011 119.58 4.10231Z" fill="#455A64"/>
<path d="M76.588 28.9664L119.582 4.09874C120.667 3.46867 121.565 3.85992 121.748 4.95239C121.646 4.26553 121.401 3.60796 121.027 3.02294C120.654 2.43792 120.161 1.9387 119.582 1.55812L117.796 0.541868C117.116 0.195937 116.363 0.0156546 115.6 0.0156546C114.837 0.0156546 114.084 0.195937 113.404 0.541868L70.4048 25.3892C69.7572 25.796 69.2231 26.3606 68.8526 27.0304L75.0359 30.5873C75.4063 29.9228 75.9407 29.3647 76.588 28.9664Z" fill="#37474F"/>
<path d="M68.1971 131.371C68.2387 132.134 68.4593 132.877 68.8409 133.539C69.2224 134.201 69.7543 134.764 70.3934 135.182L72.184 136.198C72.8037 136.509 73.4819 136.685 74.1742 136.714C74.8665 136.744 75.5573 136.627 76.2013 136.371C75.1869 136.767 74.3803 136.183 74.3803 134.928V32.7796C74.4058 32.013 74.6276 31.2658 75.0245 30.6099L68.8413 27.053C68.4499 27.704 68.2284 28.4431 68.1971 29.2024V131.371Z" fill="#263238"/>
<path d="M77.7722 42.5814L118.417 19.0807C119.148 18.664 119.736 19.0045 119.736 19.8429V95.462C119.712 95.9203 119.58 96.3663 119.35 96.7637C119.121 97.161 118.801 97.4985 118.417 97.7485L77.7874 121.249C77.057 121.671 76.4686 121.331 76.4686 120.487V44.868C76.4916 44.4112 76.6217 43.9662 76.8481 43.569C77.0746 43.1717 77.3911 42.8335 77.7722 42.5814Z" fill="white"/>
<path d="M98.0856 20.4043C97.8612 20.5518 97.6746 20.7501 97.5407 20.9831C97.4067 21.2161 97.3293 21.4773 97.3146 21.7457C97.3146 22.2539 97.6595 22.4419 98.0856 22.1929C98.3108 22.0462 98.4981 21.8482 98.6321 21.615C98.7661 21.3819 98.843 21.1202 98.8566 20.8514C98.8566 20.3586 98.5117 20.1604 98.0856 20.4043Z" fill="#37474F"/>
<path d="M98.0842 113.115C97.1974 113.696 96.4598 114.478 95.9311 115.398C95.4023 116.318 95.0973 117.35 95.0407 118.41C95.0407 120.356 96.4052 121.148 98.0842 120.173C98.9706 119.591 99.708 118.809 100.237 117.889C100.765 116.97 101.071 115.938 101.128 114.878C101.138 112.932 99.7682 112.139 98.0842 113.115Z" fill="#37474F"/>
<path d="M90.7879 28.2735C90.3421 28.5699 89.9721 28.9672 89.7078 29.4332C89.4434 29.8992 89.2922 30.421 89.2662 30.9564C89.2662 31.9421 89.956 32.3435 90.7879 31.8507C91.2384 31.557 91.6133 31.161 91.8821 30.6948C92.151 30.2286 92.3061 29.7054 92.335 29.1678C92.335 28.182 91.6451 27.7806 90.7879 28.2735Z" fill="#37474F"/>
<path d="M94.575 27.9371C94.575 28.5977 95.0823 28.8467 95.6757 28.4961L105.821 22.6171C106.135 22.4205 106.398 22.1523 106.59 21.8345C106.781 21.5166 106.894 21.158 106.921 20.7878C106.921 20.1323 106.414 19.8834 105.821 20.234L95.6757 26.113C95.3621 26.3091 95.0991 26.5764 94.9078 26.8933C94.7166 27.2103 94.6026 27.5679 94.575 27.9371Z" fill="#37474F"/>
<path d="M71.6272 45.8527C71.9872 46.0876 72.2868 46.4041 72.5018 46.7767C72.7169 47.1492 72.8412 47.5673 72.8649 47.997C72.8649 48.7897 72.312 49.1098 71.6272 48.7135C71.2684 48.4777 70.97 48.1608 70.7559 47.7884C70.5418 47.4159 70.4181 46.9983 70.3946 46.5692C70.3946 45.7816 70.9475 45.4615 71.6272 45.8527Z" fill="#37474F"/>
<path d="M71.6272 55.3953C71.9872 55.6302 72.2868 55.9468 72.5018 56.3193C72.7169 56.6919 72.8412 57.1099 72.8649 57.5396C72.8649 58.3272 72.312 58.6473 71.6272 58.2561C71.2684 58.0203 70.97 57.7035 70.7559 57.331C70.5418 56.9586 70.4181 56.5409 70.3946 56.1118C70.3946 55.3191 70.9475 54.999 71.6272 55.3953Z" fill="#37474F"/>
<path d="M71.2429 46.0468C71.6028 46.2817 71.9025 46.5982 72.1175 46.9708C72.3325 47.3433 72.4569 47.7614 72.4805 48.1911C72.4805 48.9787 71.9276 49.2988 71.2429 48.9075C70.8829 48.6727 70.5832 48.3561 70.3682 47.9836C70.1532 47.611 70.0288 47.193 70.0052 46.7633C70.0103 45.9706 70.5632 45.6657 71.2429 46.0468Z" fill="#455A64"/>
<path d="M71.2429 55.584C71.6035 55.8194 71.9035 56.1367 72.1186 56.5102C72.3337 56.8837 72.4577 57.3028 72.4805 57.7333C72.4805 58.5209 71.9276 58.841 71.2429 58.4447C70.882 58.2107 70.5818 57.8944 70.3666 57.5217C70.1515 57.1489 70.0276 56.7304 70.0052 56.3004C70.0103 55.5128 70.5632 55.1927 71.2429 55.584Z" fill="#455A64"/>
<path d="M127.963 22.2372C127.963 21.3937 127.374 21.0533 126.644 21.475L121.779 24.285L86.0139 44.9758C85.6297 45.2258 85.31 45.5633 85.0808 45.9607C84.8516 46.3581 84.7194 46.8041 84.695 47.2624V122.861C84.695 123.705 85.2834 124.045 86.0139 123.623L121.795 102.927L126.644 100.123C127.028 99.8725 127.348 99.5351 127.577 99.1377C127.806 98.7403 127.938 98.2943 127.963 97.836V22.2372Z" fill="white" stroke="#27DEBF" stroke-width="0.565386" stroke-miterlimit="10"/>
<path d="M85.4444 124.061C85.2651 124.063 85.0891 124.014 84.9371 123.918C84.7643 123.801 84.6262 123.639 84.537 123.449C84.4478 123.26 84.4108 123.05 84.4299 122.841V47.2628C84.4531 46.7598 84.5965 46.2698 84.8481 45.8339C85.0996 45.3979 85.452 45.0289 85.8755 44.7578L121.641 24.0669L121.895 24.509L86.1291 45.1947C85.7843 45.4236 85.4971 45.7294 85.2903 46.0883C85.0834 46.4472 84.9625 46.8492 84.9371 47.2628V122.862C84.902 122.982 84.9082 123.11 84.9546 123.226C85.0011 123.343 85.0851 123.44 85.1933 123.502C85.3014 123.565 85.4274 123.59 85.5511 123.572C85.6748 123.554 85.7891 123.496 85.8755 123.405L121.656 102.709L121.91 103.151L86.1291 123.847C85.9221 123.974 85.6868 124.048 85.4444 124.061Z" fill="#0C7CEC" stroke="#0C7CEC" stroke-width="0.565386" stroke-miterlimit="10"/>
<path d="M121.92 103.149L121.667 102.707L126.516 99.9025C126.861 99.6736 127.148 99.3678 127.355 99.0089C127.562 98.6501 127.683 98.248 127.708 97.8344V22.2356C127.743 22.1155 127.737 21.987 127.69 21.8708C127.644 21.7546 127.56 21.6574 127.452 21.5947C127.344 21.5321 127.218 21.5076 127.094 21.5252C126.97 21.5428 126.856 21.6015 126.77 21.6919L121.905 24.5069L121.652 24.0649L126.531 21.2753C126.696 21.141 126.898 21.06 127.11 21.0431C127.321 21.0261 127.533 21.0739 127.717 21.1801C127.902 21.2864 128.049 21.4461 128.141 21.6382C128.232 21.8303 128.264 22.0457 128.23 22.2559V97.8344C128.207 98.338 128.063 98.8286 127.812 99.2652C127.56 99.7019 127.208 100.072 126.785 100.345L121.92 103.149Z" fill="#27DEBF" stroke="#0C7CEC" stroke-width="0.565386" stroke-miterlimit="10"/>
<path opacity="0.5" d="M106.327 38.9951C111.279 36.1402 115.267 38.4439 115.267 44.1701C115.267 49.8963 111.262 56.846 106.327 59.6788C101.392 62.5116 97.387 60.2299 97.387 54.5092C97.387 48.7886 101.392 41.8554 106.327 38.9951Z" fill="#D0F3FF"/>
<path d="M110.806 41.6771L102.107 56.5422L104.814 54.9789L105.609 53.2154L110.11 43.2216L110.806 41.6771Z" fill="url(#paint5_linear_37_1364)"/>
<path d="M108.242 43.1575L107.964 43.7645L103.598 53.2879L102.107 56.5422L110.806 41.6771L108.242 43.1575Z" fill="url(#paint6_linear_37_1364)"/>
<path d="M109.944 50.299L109.831 50.1802C109.737 50.081 109.585 50.078 109.423 50.1714L107.377 51.3529C107.301 51.3966 107.242 51.4825 107.214 51.5677L110.997 51.4098L109.944 50.299Z" fill="#F69300"/>
<path d="M107.216 51.5677C107.191 51.6436 107.191 51.7189 107.228 51.763L107.648 52.2588L107.649 52.2582L108.267 52.9868L110.999 51.4096L107.216 51.5675L107.216 51.5677Z" fill="url(#paint7_linear_37_1364)"/>
<path d="M105.983 46.285L105.335 45.5608L104.909 45.084L102.236 46.6271L105.941 46.5927C106.014 46.4881 106.041 46.3501 105.984 46.2848L105.983 46.285Z" fill="url(#paint8_linear_37_1364)"/>
<path d="M102.236 46.6233L103.376 47.8631C103.381 47.8679 103.386 47.8717 103.39 47.8765C103.485 47.9645 103.631 47.9643 103.787 47.8741L105.835 46.692C105.877 46.6678 105.912 46.6305 105.942 46.5884L102.236 46.6227L102.236 46.6233Z" fill="#F69300"/>
<path d="M90.3805 70.4819L100.987 64.3489C101.494 64.0694 101.864 64.293 101.864 64.857V65.2076C101.848 65.513 101.76 65.8102 101.608 66.0751C101.455 66.34 101.243 66.5651 100.987 66.732L90.3805 72.865C89.8986 73.1445 89.5029 72.9158 89.5029 72.3569V72.0063C89.5194 71.701 89.6074 71.4039 89.7599 71.1391C89.9123 70.8742 90.1249 70.6491 90.3805 70.4819Z" fill="#27DEBF"/>
<path d="M90.3805 70.4819L100.987 64.3489C101.494 64.0694 101.864 64.293 101.864 64.857V65.2076C101.848 65.513 101.76 65.8102 101.608 66.0751C101.455 66.34 101.243 66.5651 100.987 66.732L90.3805 72.865C89.8986 73.1445 89.5029 72.9158 89.5029 72.3569V72.0063C89.5194 71.701 89.6074 71.4039 89.7599 71.1391C89.9123 70.8742 90.1249 70.6491 90.3805 70.4819Z" fill="#D0F3FF"/>
<path d="M89.9442 77.8846L122.032 59.3278C122.271 59.1856 122.468 59.2974 122.468 59.5819V63.3319C122.46 63.4841 122.415 63.6321 122.34 63.7643C122.264 63.8966 122.159 64.0095 122.032 64.0941L89.9442 82.6508C89.7008 82.793 89.5029 82.6762 89.5029 82.3967V78.6467C89.5116 78.4939 89.5561 78.3453 89.6328 78.2129C89.7095 78.0805 89.8161 77.968 89.9442 77.8846Z" fill="#D0F3FF"/>
<path d="M90.3805 87.1629L100.987 81.0298C101.494 80.7504 101.864 80.979 101.864 81.5379V81.8885C101.849 82.194 101.761 82.4914 101.608 82.7564C101.456 83.0213 101.243 83.2463 100.987 83.4129L90.3805 89.546C89.8986 89.8305 89.5029 89.6019 89.5029 89.0379V88.6873C89.5202 88.3822 89.6086 88.0854 89.7609 87.8207C89.9133 87.5559 90.1255 87.3307 90.3805 87.1629Z" fill="#27DEBF"/>
<path d="M90.3805 87.1629L100.987 81.0298C101.494 80.7504 101.864 80.979 101.864 81.5379V81.8885C101.849 82.194 101.761 82.4914 101.608 82.7564C101.456 83.0213 101.243 83.2463 100.987 83.4129L90.3805 89.546C89.8986 89.8305 89.5029 89.6019 89.5029 89.0379V88.6873C89.5202 88.3822 89.6086 88.0854 89.7609 87.8207C89.9133 87.5559 90.1255 87.3307 90.3805 87.1629Z" fill="#D0F3FF"/>
<path d="M89.9442 94.5655L122.032 76.0088C122.271 75.8665 122.468 75.9834 122.468 76.2629V80.0128C122.46 80.165 122.415 80.313 122.34 80.4453C122.264 80.5775 122.159 80.6904 122.032 80.775L89.9442 99.3317C89.7008 99.474 89.5029 99.3622 89.5029 99.0777V95.3277C89.5116 95.1749 89.5561 95.0263 89.6328 94.8939C89.7095 94.7615 89.8161 94.649 89.9442 94.5655Z" fill="#27DEBF"/>
<path d="M89.9442 94.5655L122.032 76.0088C122.271 75.8665 122.468 75.9834 122.468 76.2629V80.0128C122.46 80.165 122.415 80.313 122.34 80.4453C122.264 80.5775 122.159 80.6904 122.032 80.775L89.9442 99.3317C89.7008 99.474 89.5029 99.3622 89.5029 99.0777V95.3277C89.5116 95.1749 89.5561 95.0263 89.6328 94.8939C89.7095 94.7615 89.8161 94.649 89.9442 94.5655Z" fill="#D0F3FF"/>
<path d="M102.744 96.6989L115.425 89.3768C115.932 89.0923 116.307 89.3209 116.307 89.885V93.8077C116.291 94.1135 116.202 94.4111 116.049 94.676C115.895 94.9409 115.681 95.1657 115.425 95.3321L102.744 102.659C102.236 102.939 101.866 102.71 101.866 102.151V98.2233C101.884 97.9183 101.972 97.6216 102.125 97.357C102.277 97.0923 102.489 96.867 102.744 96.6989Z" fill="#27DEBF"/>
<path d="M102.744 96.6989L115.425 89.3768C115.932 89.0923 116.307 89.3209 116.307 89.885V93.8077C116.291 94.1135 116.202 94.4111 116.049 94.676C115.895 94.9409 115.681 95.1657 115.425 95.3321L102.744 102.659C102.236 102.939 101.866 102.71 101.866 102.151V98.2233C101.884 97.9183 101.972 97.6216 102.125 97.357C102.277 97.0923 102.489 96.867 102.744 96.6989Z" fill="#D0F3FF"/>
<path d="M132.77 80.1424C132.77 80.1424 126.541 71.5347 126.176 70.488C125.887 69.7156 126.176 68.5673 126.267 68.0338C126.358 67.5002 126.44 66.3112 126.531 66.0013C126.683 65.422 125.937 65.5389 125.516 66.0673C125.095 66.5958 124.953 67.6527 124.735 67.8254C124.517 67.9982 122.859 65.5744 121.991 64.4565C121.124 63.3387 120.581 62.6578 120.048 63.0744C119.668 63.3742 119.952 64.0246 120.581 64.9799C120.948 65.4943 121.287 66.0287 121.596 66.5805C121.692 66.7888 121.175 66.8041 120.896 67.236C120.677 67.5714 120.896 68.1151 120.591 68.3742C120.404 68.517 120.276 68.7238 120.231 68.9552C120.186 69.1867 120.227 69.4266 120.348 69.6293C120.912 70.5175 121.64 71.29 122.493 71.9057C123.427 72.551 123.802 72.7796 124.355 73.6587C124.908 74.5377 129.869 83.5163 130.203 84.0549C130.538 84.5935 131.182 85.6911 132.161 85.7216C133.14 85.7521 141.155 78.8416 141.566 78.496C142.884 77.3934 143.305 77.2308 143.529 78.2267C143.606 78.579 143.663 78.9352 143.701 79.2938C143.858 80.5539 144.716 85.0559 144.716 85.0559C144.716 85.0559 148.773 87.0224 152.106 86.0722C155.439 85.122 156.565 83.7043 156.565 83.7043L154.896 80.9808C155.347 79.8578 157.432 75.305 158.107 72.1191L147.657 70.427C147.444 70.3813 147.1 70.2949 146.643 70.178C146.07 70.0256 144.614 69.5226 143.513 70.488C139.922 73.6231 132.78 80.1424 132.78 80.1424" fill="#FFA8A7"/>
<path d="M153.486 132.955L151.614 135.562C152.465 135.96 153.394 136.159 154.333 136.146C156.012 136.207 156.474 135.638 156.535 135.526C156.819 134.917 156.377 133.819 156.256 132.874L153.486 132.955Z" fill="#37474F"/>
<path d="M151.719 134.311C151.719 134.311 149.447 134.164 147.879 133.971C146.312 133.778 145.069 134.54 145.434 135.185C145.8 135.831 146.667 136.369 148.016 136.821C149.168 137.213 150.552 137.492 151.749 137.838C152.947 138.183 153.778 138.635 154.473 138.391C155.249 138.122 155.584 137.812 155.518 137.243C155.349 136.434 155.139 135.633 154.889 134.845L151.719 134.311Z" fill="#37474F"/>
<path d="M156.534 130.341C156.534 130.341 156.25 132.709 156.23 133.217C156.209 133.725 153.922 133.888 153.486 132.958L153.415 130.062L156.534 130.341Z" fill="#F28F8F"/>
<path d="M154.232 131.792L155.048 135.389C155.048 135.389 155.124 135.826 153.258 136.106C151.391 136.385 148.459 135.125 147.957 134.871C147.455 134.617 147.399 134.104 149.235 134.205C151.072 134.307 151.721 134.312 151.721 134.312L151.122 132.722L154.232 131.792Z" fill="#FFA8A7"/>
<path d="M158.076 72.086L159.37 71.7252C159.37 71.7252 162.073 80.2973 162.372 81.1255C162.672 81.9538 163.012 82.8278 162.428 83.8491C161.733 85.0635 158.076 89.9466 158.076 89.9466L155.753 87.6702L158.391 82.8328L156.057 78.1073L158.076 72.086Z" fill="#F28F8F"/>
<path d="M144.793 60.9544C144.489 60.3841 144.335 59.7462 144.345 59.1001C144.355 58.4541 144.528 57.8211 144.848 57.2603C146.137 54.867 149.008 53.7034 152.427 54.1455C154.009 54.3538 155.876 55.6699 156.895 57.6363C158.021 59.8162 158.128 64.2064 158.417 65.8679L144.793 60.9544Z" fill="#37474F"/>
<path d="M144.702 61.8942C144.702 61.8942 143.891 63.444 144.033 63.5862C144.243 63.7093 144.473 63.7953 144.712 63.8403L144.702 61.8942Z" fill="#FFA8A7"/>
<path d="M147.166 56.9948C146.283 57.569 144.762 58.6259 144.696 62.1065C144.625 65.6634 145.132 66.8372 145.66 67.2488C146.015 67.5282 148.099 67.386 148.992 67.1776C149.885 66.9693 152.457 65.6939 153.385 63.7579C154.475 61.4816 154.252 58.1686 152.634 57.1523C151.811 56.6645 150.877 56.3941 149.92 56.3665C148.964 56.339 148.016 56.5552 147.166 56.9948Z" fill="#FFA8A7"/>
<path d="M156.534 83.6834C158.096 86.1224 159.578 88.2565 159.902 91.0105C160.572 96.798 158.38 103.414 157.909 107.697C158.796 108.916 159.307 110.368 159.38 111.874C159.38 113.647 156.534 130.339 156.534 130.339C156.534 130.339 154.465 130.969 153.415 130.06L151.462 99.3539L152.476 95.6141L156.534 83.6834Z" fill="#27DEBF"/>
<path opacity="0.2" d="M156.534 83.6834C158.096 86.1224 159.578 88.2565 159.902 91.0105C160.572 96.798 158.38 103.414 157.909 107.697C158.796 108.916 159.307 110.368 159.38 111.874C159.38 113.647 156.534 130.339 156.534 130.339C156.534 130.339 154.465 130.969 153.415 130.06L151.462 99.3539L152.476 95.6141L156.534 83.6834Z" fill="black"/>
<path d="M151.462 99.3534L152.476 95.6136C154.419 95.1014 156.292 94.3558 158.056 93.3931C158.056 93.3931 157.001 95.3189 153.967 96.3758L152.4 101.178L152.268 112.178L151.462 99.3534Z" fill="#27DEBF"/>
<path opacity="0.3" d="M151.462 99.3534L152.476 95.6136C154.419 95.1014 156.292 94.3558 158.056 93.3931C158.056 93.3931 157.001 95.3189 153.967 96.3758L152.4 101.178L152.268 112.178L151.462 99.3534Z" fill="black"/>
<path d="M156.533 83.6834C157.37 85.0553 159.369 87.3927 158.943 89.6436C158.436 92.3672 156.965 94.2828 152.491 95.6141L148.291 110.858C148.291 110.858 150.477 112.89 151.147 114.857C151.816 116.823 154.231 131.803 154.231 131.803C154.231 131.803 153.48 133.027 151.121 132.733C151.121 132.733 142.899 113.932 142.321 112.707C141.619 111.467 141.373 110.02 141.626 108.617C141.884 106.646 144.669 85.0654 144.669 85.0654L156.533 83.6834Z" fill="#27DEBF"/>
<path opacity="0.2" d="M156.533 83.6834C157.37 85.0553 159.369 87.3927 158.943 89.6436C158.436 92.3672 156.965 94.2828 152.491 95.6141L148.291 110.858C148.291 110.858 150.477 112.89 151.147 114.857C151.816 116.823 154.231 131.803 154.231 131.803C154.231 131.803 153.48 133.027 151.121 132.733C151.121 132.733 142.899 113.932 142.321 112.707C141.619 111.467 141.373 110.02 141.626 108.617C141.884 106.646 144.669 85.0654 144.669 85.0654L156.533 83.6834Z" fill="black"/>
<path d="M158.077 72.0893L147.628 70.3973C147.415 70.3515 147.07 70.2652 146.613 70.1483C146.613 70.1483 146.167 76.7133 143.484 78.2173C143.55 78.5323 143.605 78.883 143.656 79.2844C143.813 80.5445 144.671 85.0465 144.671 85.0465C144.671 85.0465 148.729 87.0129 152.061 86.0628C155.394 85.1126 156.52 83.6949 156.52 83.6949L154.851 80.9713C155.318 79.8382 157.418 75.2854 158.077 72.0893Z" fill="#27DEBF"/>
<path d="M158.077 72.0893L147.628 70.3973C147.415 70.3515 147.07 70.2652 146.613 70.1483C146.613 70.1483 146.167 76.7133 143.484 78.2173C143.55 78.5323 143.605 78.883 143.656 79.2844C143.813 80.5445 144.671 85.0465 144.671 85.0465C144.671 85.0465 148.729 87.0129 152.061 86.0628C155.394 85.1126 156.52 83.6949 156.52 83.6949L154.851 80.9713C155.318 79.8382 157.418 75.2854 158.077 72.0893Z" fill="#FFBE02"/>
<path d="M155.321 79.8874C153.934 80.7221 152.48 81.441 150.974 82.0367C152.341 82.0094 153.679 81.639 154.865 80.9595L155.321 79.8874Z" fill="#D3A10E"/>
<path d="M146.905 57.1715C146.905 57.1715 146.398 60.4743 147.595 62.4153C147.595 62.4153 148.042 61.0993 149.152 61.3483C150.263 61.5973 150.324 63.0657 149.543 63.8889C149.344 64.1202 149.083 64.2906 148.792 64.3805C148.5 64.4703 148.189 64.4761 147.894 64.397C147.894 64.397 147.722 66.7852 147.626 68.7872C147.529 70.7892 147.002 75.154 149.249 76.9172C151.496 78.6804 157.136 79.3003 159.779 75.6012C161.25 73.5433 159.297 69.9051 158.389 65.8249C157.552 62.0749 157.081 56.516 153.109 55.6217C149.137 54.7274 146.905 57.1715 146.905 57.1715Z" fill="#37474F"/>
<path d="M161.48 12.0426L160.643 12.5508C160.713 12.2524 160.753 11.9476 160.76 11.6412C160.76 9.939 159.568 9.25303 158.097 10.1168C157.649 10.3873 157.25 10.7308 156.915 11.1331C156.915 8.84653 155.312 7.91666 153.334 9.05994C152.291 9.74096 151.424 10.6586 150.802 11.7383C150.179 12.818 149.82 14.0294 149.753 15.2743C149.753 15.3912 149.753 15.503 149.753 15.6147C149.243 15.5505 148.727 15.6693 148.297 15.9501C147.522 16.4561 146.877 17.138 146.414 17.9405C145.951 18.743 145.684 19.6436 145.634 20.569C145.634 20.7841 145.656 20.9987 145.7 21.2092L145.254 21.4683C144.041 22.1696 143.057 23.5364 143.057 24.5171C143.057 25.4978 144.041 25.7315 145.254 25.0252L161.485 15.6503C162.697 14.9491 163.682 13.5822 163.682 12.6016C163.682 11.6209 162.692 11.3363 161.48 12.0426Z" fill="#1F67FF"/>
</g>
<defs>
<linearGradient id="paint0_linear_37_1364" x1="23.2569" y1="127.892" x2="35.2973" y2="127.892" gradientUnits="userSpaceOnUse">
<stop stop-color="#02CDFF"/>
<stop offset="0.494791" stop-color="#03C0FF"/>
<stop offset="1" stop-color="#005AFD"/>
</linearGradient>
<linearGradient id="paint1_linear_37_1364" x1="12.5099" y1="128.936" x2="27.2544" y2="128.936" gradientUnits="userSpaceOnUse">
<stop stop-color="#FFCE00"/>
<stop offset="1" stop-color="#FFB003"/>
</linearGradient>
<linearGradient id="paint2_linear_37_1364" x1="120.916" y1="98.1838" x2="135.001" y2="98.1838" gradientUnits="userSpaceOnUse">
<stop stop-color="#FFCE00"/>
<stop offset="1" stop-color="#FFB003"/>
</linearGradient>
<linearGradient id="paint3_linear_37_1364" x1="49.0738" y1="88.747" x2="71.1907" y2="88.747" gradientUnits="userSpaceOnUse">
<stop stop-color="#02CDFF"/>
<stop offset="0.494791" stop-color="#03C0FF"/>
<stop offset="1" stop-color="#005AFD"/>
</linearGradient>
<linearGradient id="paint4_linear_37_1364" x1="38.0934" y1="108.769" x2="68.1979" y2="108.769" gradientUnits="userSpaceOnUse">
<stop stop-color="#FFCE00"/>
<stop offset="1" stop-color="#FFB003"/>
</linearGradient>
<linearGradient id="paint5_linear_37_1364" x1="108.851" y1="45.4467" x2="106.04" y2="52.1297" gradientUnits="userSpaceOnUse">
<stop stop-color="#FFAC00"/>
<stop offset="1" stop-color="#FE7801"/>
</linearGradient>
<linearGradient id="paint6_linear_37_1364" x1="102.107" y1="51.621" x2="110.806" y2="51.621" gradientUnits="userSpaceOnUse">
<stop stop-color="#FFCE00"/>
<stop offset="1" stop-color="#FFB003"/>
</linearGradient>
<linearGradient id="paint7_linear_37_1364" x1="107.198" y1="52.591" x2="110.998" y2="52.591" gradientUnits="userSpaceOnUse">
<stop stop-color="#FE8B01"/>
<stop offset="1" stop-color="#FE7801"/>
</linearGradient>
<linearGradient id="paint8_linear_37_1364" x1="102.236" y1="47.6796" x2="106.015" y2="47.6796" gradientUnits="userSpaceOnUse">
<stop stop-color="#FFCE00"/>
<stop offset="1" stop-color="#FFC101"/>
</linearGradient>
<clipPath id="clip0_37_1364">
<rect width="178.662" height="166.223" fill="white" transform="scale(1.00189)"/>
</clipPath>
</defs>
</svg>
