<svg width="44" height="148" viewBox="0 0 44 148" fill="none" xmlns="http://www.w3.org/2000/svg">
<rect width="44" height="44" rx="22" fill="#0082FF"/>
<path d="M14.9999 25.2101V22.4101H17.7999V25.2101H14.9999ZM28.9999 14.7017C28.9977 14.1462 28.7755 13.6142 28.3819 13.2222C27.9883 12.8302 27.4554 12.6101 26.8999 12.6101H12.7921C12.2352 12.6101 11.701 12.8314 11.3072 13.2252C10.9134 13.619 10.6921 14.1532 10.6921 14.7101V27.3101C10.6921 28.2384 11.0609 29.1286 11.7173 29.785C12.3736 30.4414 13.2639 30.8101 14.1921 30.8101H29.8077C30.736 30.8101 31.6262 30.4414 32.2826 29.785C32.939 29.1286 33.3077 28.2384 33.3077 27.3101V18.9101C33.3077 18.3532 33.0865 17.819 32.6927 17.4252C32.2988 17.0314 31.7647 16.8101 31.2077 16.8101H30.3999V26.9321C30.3999 27.1178 30.3262 27.2958 30.1949 27.4271C30.0636 27.5584 29.8856 27.6321 29.6999 27.6321C29.5143 27.6321 29.3362 27.5584 29.205 27.4271C29.0737 27.2958 28.9999 27.1178 28.9999 26.9321V14.7017ZM13.5999 17.5101C13.5999 17.3245 13.6737 17.1464 13.805 17.0151C13.9362 16.8839 14.1143 16.8101 14.2999 16.8101H25.4999C25.6856 16.8101 25.8636 16.8839 25.9949 17.0151C26.1262 17.1464 26.1999 17.3245 26.1999 17.5101C26.1999 17.6958 26.1262 17.8738 25.9949 18.0051C25.8636 18.1364 25.6856 18.2101 25.4999 18.2101H14.2999C14.1143 18.2101 13.9362 18.1364 13.805 18.0051C13.6737 17.8738 13.5999 17.6958 13.5999 17.5101ZM21.2999 21.0101H25.4999C25.6856 21.0101 25.8636 21.0839 25.9949 21.2151C26.1262 21.3464 26.1999 21.5245 26.1999 21.7101C26.1999 21.8958 26.1262 22.0738 25.9949 22.2051C25.8636 22.3364 25.6856 22.4101 25.4999 22.4101H21.2999C21.1143 22.4101 20.9362 22.3364 20.805 22.2051C20.6737 22.0738 20.5999 21.8958 20.5999 21.7101C20.5999 21.5245 20.6737 21.3464 20.805 21.2151C20.9362 21.0839 21.1143 21.0101 21.2999 21.0101ZM20.5999 25.9101C20.5999 25.7245 20.6737 25.5464 20.805 25.4151C20.9362 25.2839 21.1143 25.2101 21.2999 25.2101H25.4999C25.6856 25.2101 25.8636 25.2839 25.9949 25.4151C26.1262 25.5464 26.1999 25.7245 26.1999 25.9101C26.1999 26.0958 26.1262 26.2738 25.9949 26.4051C25.8636 26.5364 25.6856 26.6101 25.4999 26.6101H21.2999C21.1143 26.6101 20.9362 26.5364 20.805 26.4051C20.6737 26.2738 20.5999 26.0958 20.5999 25.9101ZM14.2999 21.0101H18.4999C18.6856 21.0101 18.8636 21.0839 18.9949 21.2151C19.1262 21.3464 19.1999 21.5245 19.1999 21.7101V25.9101C19.1999 26.0958 19.1262 26.2738 18.9949 26.4051C18.8636 26.5364 18.6856 26.6101 18.4999 26.6101H14.2999C14.1143 26.6101 13.9362 26.5364 13.805 26.4051C13.6737 26.2738 13.5999 26.0958 13.5999 25.9101V21.7101C13.5999 21.5245 13.6737 21.3464 13.805 21.2151C13.9362 21.0839 14.1143 21.0101 14.2999 21.0101Z" fill="white"/>
</svg>
